<svg width="46" height="61" viewBox="0 0 46 61" fill="none" xmlns="http://www.w3.org/2000/svg">
<path d="M41.2598 12.7572C40.4838 12.6221 39.7512 12.6371 39.0651 12.803C39.037 11.7648 38.9893 10.7244 38.9191 9.68405V9.6726C38.7914 8.13243 38.1698 6.8561 37.0521 5.84219C35.9007 4.7961 34.5613 4.32489 33.0331 4.43215C31.827 4.51437 30.7774 4.93839 29.8828 5.70419C29.8035 5.12287 29.7228 4.72817 29.6463 4.52295L29.6358 4.50007C29.0401 2.87552 28.0129 1.6328 26.5514 0.77262L26.5402 0.761894C24.9601 -0.184091 23.2453 -0.249159 21.3972 0.566691H21.4091C19.5295 1.32677 18.39 2.9742 17.9887 5.5097V5.48682C17.9192 5.85792 17.868 6.2662 17.8308 6.71381C17.6652 6.60512 17.4877 6.50573 17.3025 6.41564L17.2793 6.4042C15.9182 5.77569 14.5275 5.70276 13.1046 6.18612C13.0962 6.19041 13.0843 6.19398 13.0716 6.19756C11.6536 6.72239 10.6068 7.64764 9.93252 8.97259V8.96115C9.28772 10.1159 9.05899 11.7333 9.24563 13.8112H9.2344C9.35508 15.3213 10.7008 21.5786 13.2737 32.5843C13.2211 32.5536 13.1685 32.5236 13.1165 32.4928H13.1278C11.808 31.6991 10.357 31.0913 8.77273 30.6688L8.78395 30.6802C7.01513 30.1775 5.12914 30.3534 3.12458 31.2079C0.745336 32.1989 -0.275541 34.0566 0.0633477 36.7808V36.7937C0.316637 39.4172 2.02301 41.1146 5.18317 41.884C7.19826 42.3695 8.53347 42.8515 9.18879 43.3291L9.20072 43.3405C9.7922 43.8711 10.4223 44.7384 11.0909 45.944C11.0944 45.9525 11.0972 45.9597 11.1021 45.9668C12.0241 47.6901 13.4267 49.0322 15.3105 49.9917H15.2993C15.855 50.2828 16.4247 50.5387 17.0099 50.7604C16.4016 51.7157 16.128 52.5487 16.1883 53.2602C16.0971 55.6319 17.473 57.5275 20.3174 58.9482L20.3062 58.9361C22.2441 59.9357 24.3932 60.5864 26.7542 60.886H26.7661C29.1503 61.1777 31.5442 60.9095 33.9445 60.0837L33.9565 60.0715C36.7868 59.147 38.2631 56.8217 38.3774 53.1C38.3859 52.9019 38.3592 52.7196 38.2996 52.5487C43.7513 49.3918 45.3082 43.0695 42.9703 33.5811C44.4971 28.8018 45.4983 23.8745 45.974 18.7993V18.7885C46.1094 17.3513 45.7151 16.0442 44.7918 14.8666C43.8635 13.6889 42.6862 12.9853 41.2598 12.7572ZM39.8761 33.0091C39.7793 33.3094 39.7716 33.6118 39.8523 33.915C42.247 43.2383 40.2684 48.9221 33.9116 50.967C33.5018 51.09 33.1945 51.3417 32.9889 51.7243C32.784 52.109 32.7426 52.5108 32.8647 52.9291C32.984 53.346 33.2317 53.6591 33.6084 53.8686C33.9852 54.0781 34.3795 54.1203 34.7893 53.9959C34.9289 53.9559 35.0671 53.9137 35.2061 53.8686C34.9731 55.5011 34.2203 56.5757 32.944 57.092L32.9559 57.0798C31.0103 57.7505 29.071 57.9729 27.138 57.7455C25.1489 57.4946 23.3358 56.9526 21.7031 56.1174L21.6912 56.1053C20.1834 55.353 19.3835 54.4056 19.2937 53.2609C19.3716 52.854 19.6866 52.3113 20.2402 51.6327C20.4683 51.6728 20.697 51.7071 20.9257 51.7364C21.3502 51.79 21.7326 51.6828 22.0743 51.4154C22.4118 51.1458 22.6068 50.794 22.6595 50.36C22.7135 49.9274 22.6075 49.5377 22.3444 49.1909C22.0799 48.8463 21.7347 48.6475 21.3095 48.5939C19.6635 48.3879 18.1332 47.9146 16.7187 47.1724H16.7068C15.4179 46.516 14.4531 45.6022 13.8147 44.4302L13.8041 44.4088C12.8906 42.7585 12.0122 41.5901 11.1709 40.8994L11.1597 40.8873C10.3402 40.1479 8.58749 39.4565 5.90375 38.8122C4.2963 38.4211 3.37646 37.6146 3.14703 36.3926V36.3811C3.00881 35.2893 3.39821 34.5364 4.31805 34.1216C5.61467 33.5704 6.83341 33.4388 7.97567 33.732L7.98619 33.7441C9.28281 34.0866 10.4721 34.5793 11.5533 35.2228H11.5645C12.8962 36.0143 14.0736 36.5006 15.098 36.6793C15.1288 36.6893 15.1583 36.6965 15.1871 36.7022C15.2453 36.7129 15.3063 36.7201 15.3674 36.7244C15.8627 36.7608 16.7896 36.7444 18.1465 36.6793H18.169C19.2369 36.6393 20.5756 36.9753 22.1866 37.6882V37.6997C23.7624 38.4261 25.0401 39.814 26.0245 41.8626C26.2125 42.2537 26.5079 42.5211 26.9135 42.6655C27.3155 42.81 27.7105 42.7871 28.0943 42.5969C28.4802 42.4038 28.7426 42.1021 28.8829 41.6895C29.024 41.2812 29.0015 40.8794 28.8149 40.4861C27.4551 37.6417 25.6603 35.7419 23.4242 34.7859V34.7981C21.2653 33.8335 19.4607 33.4059 18.0125 33.5132H17.9901C17.4912 33.5368 17.059 33.5525 16.6963 33.5589C13.9283 21.7616 12.4766 15.0868 12.3412 13.5366H12.3293C12.2163 12.2203 12.3321 11.192 12.6787 10.4513V10.4398C12.9888 9.84779 13.4603 9.43164 14.096 9.18996C14.1079 9.18638 14.1185 9.18209 14.1297 9.17852C14.7584 8.97331 15.3737 9.00834 15.9757 9.28148C15.9834 9.28577 15.9911 9.28935 15.9988 9.29364C16.551 9.56678 16.9327 9.99437 17.1467 10.5771L17.1355 10.5664C17.4723 11.5138 17.7796 12.4698 18.0574 13.433C18.0645 13.4623 18.0722 13.4923 18.0806 13.5245C18.1325 13.6739 18.2553 14.0908 18.4511 14.7751C18.4567 14.8087 18.4644 14.8437 18.4742 14.878C19.4214 18.1872 20.3027 22.6025 21.1187 28.1225C21.1811 28.5573 21.3832 28.9048 21.7263 29.1665C22.0743 29.4246 22.4602 29.5204 22.8854 29.4532C23.3064 29.3903 23.6445 29.1829 23.8985 28.834C24.1511 28.4829 24.2444 28.0925 24.1792 27.6642C23.3485 21.9883 22.449 17.4428 21.4786 14.03C20.9075 10.4448 20.7636 7.77992 21.0513 6.03667V6.01379C21.2499 4.75534 21.7747 3.91089 22.6265 3.47901H22.6384C23.4909 3.1029 24.2816 3.11363 25.0127 3.51333L24.9987 3.50332C25.8119 3.98382 26.3872 4.67597 26.7205 5.57906C27.0804 6.73311 27.5667 13.9506 28.1841 27.2295C28.1827 27.2481 28.1827 27.2674 28.1841 27.2867C28.2017 27.7128 28.3665 28.0718 28.6795 28.3642C28.9917 28.661 29.3601 28.8018 29.7817 28.7889C30.2055 28.7739 30.5669 28.6102 30.8616 28.2956C31.1548 27.9838 31.2966 27.612 31.2895 27.183C31.2895 27.1637 31.2895 27.1451 31.2895 27.1258C31.1247 16.4532 31.0271 10.8345 30.9963 10.2682V10.2453C30.9493 9.56607 31.1352 8.96973 31.5583 8.45634L31.5702 8.4449C32.0171 7.92722 32.5728 7.64406 33.2366 7.59616C33.8989 7.54968 34.4806 7.75275 34.9808 8.20393C35.4783 8.65583 35.7561 9.22571 35.813 9.91214C35.8867 10.9861 35.9407 12.0608 35.9715 13.1348C35.9849 13.8963 35.9933 14.68 35.9933 15.4858C35.987 15.5602 35.987 15.6374 35.9933 15.7153C35.9884 19.6001 35.7218 24.0597 35.1948 29.0971C35.1492 29.5297 35.2622 29.9158 35.5316 30.2562C35.7989 30.598 36.1441 30.7932 36.5665 30.8411C36.9903 30.8868 37.3699 30.7724 37.7032 30.4972C38.0379 30.2247 38.2301 29.8729 38.2764 29.4418C38.7956 24.5031 39.0693 20.1028 39.098 16.243C39.1086 16.2366 39.1198 16.2287 39.1324 16.2194C39.6039 15.8841 40.1442 15.7704 40.7532 15.8755H40.7644C41.4085 15.9835 41.941 16.3052 42.362 16.8394C42.757 17.3413 42.9332 17.8955 42.8911 18.5025C42.4203 23.487 41.4148 28.322 39.8761 33.0091Z" fill="black"/>
</svg>
