<svg width="52" height="72" viewBox="0 0 52 72" fill="none" xmlns="http://www.w3.org/2000/svg">
<path d="M51.7031 20.9375C51.7031 23.7188 51.1719 26.3438 50.1094 28.8125C49.0781 31.25 47.6406 33.3906 45.7969 35.2344C43.9844 37.0469 41.8438 38.4844 39.375 39.5469C36.9375 40.6094 34.3281 41.1406 31.5469 41.1406C30.5781 41.1406 29.7188 41.3125 28.9688 41.6562C28.25 42 27.6406 42.4844 27.1406 43.1094C26.6719 43.7031 26.3125 44.4062 26.0625 45.2188C25.8125 46.0312 25.6875 46.9062 25.6875 47.8438V51.4062H12.2812V47.6562C12.3125 44.9062 12.7969 42.3125 13.7344 39.875C14.7031 37.4375 16.0312 35.3281 17.7188 33.5469C19.4375 31.7344 21.4688 30.3125 23.8125 29.2812C26.1562 28.2188 28.7344 27.6875 31.5469 27.6875C32.4844 27.6875 33.3594 27.5156 34.1719 27.1719C34.9844 26.8281 35.6875 26.3594 36.2812 25.7656C36.9062 25.1406 37.3906 24.4219 37.7344 23.6094C38.1094 22.7656 38.2969 21.875 38.2969 20.9375C38.2969 20 38.1094 19.125 37.7344 18.3125C37.3906 17.5 36.9062 16.7969 36.2812 16.2031C35.6875 15.5781 34.9844 15.0938 34.1719 14.75C33.3594 14.4062 32.4844 14.2344 31.5469 14.2344H0.75V0.78125H31.5469C34.3281 0.78125 36.9375 1.3125 39.375 2.375C41.8438 3.4375 43.9844 4.89062 45.7969 6.73438C47.6406 8.54688 49.0781 10.6719 50.1094 13.1094C51.1719 15.5469 51.7031 18.1562 51.7031 20.9375ZM27.0469 63.2188C27.0469 64.3438 26.8281 65.4062 26.3906 66.4062C25.9844 67.375 25.4219 68.2188 24.7031 68.9375C23.9844 69.6562 23.1406 70.2188 22.1719 70.625C21.2031 71.0625 20.1719 71.2812 19.0781 71.2812C17.9844 71.2812 16.9375 71.0625 15.9375 70.625C14.9688 70.2188 14.1094 69.6562 13.3594 68.9375C12.6406 68.2188 12.0625 67.375 11.625 66.4062C11.2188 65.4062 11.0156 64.3438 11.0156 63.2188C11.0156 62.125 11.2188 61.0938 11.625 60.125C12.0625 59.1562 12.6406 58.3125 13.3594 57.5938C14.1094 56.875 14.9688 56.3125 15.9375 55.9062C16.9375 55.4688 17.9844 55.25 19.0781 55.25C20.1719 55.25 21.2031 55.4688 22.1719 55.9062C23.1406 56.3125 23.9844 56.875 24.7031 57.5938C25.4219 58.3125 25.9844 59.1562 26.3906 60.125C26.8281 61.0938 27.0469 62.125 27.0469 63.2188Z" fill="black"/>
</svg>
