<svg width="58" height="52" viewBox="0 0 58 52" fill="none" xmlns="http://www.w3.org/2000/svg">
<path d="M38.4132 50.0548C39.9834 48.6925 40.7586 47.0567 40.739 45.1498C40.739 45.0995 40.739 45.0493 40.739 44.999C42.7262 44.7263 44.5535 43.9902 46.2232 42.7888L46.2389 42.7731C48.7874 40.8843 50.0361 38.6082 49.9844 35.9455C49.982 35.3083 49.9123 34.6869 49.7727 34.0827C50.0048 33.9318 50.2517 33.77 50.5119 33.5995C50.5425 33.572 50.5731 33.5476 50.6029 33.5233C52.2851 32.344 53.127 30.4567 53.1255 27.8601C53.1851 26.412 52.6771 24.9381 51.6008 23.4398C52.1142 23.1428 52.6073 22.8152 53.0808 22.4561C53.3261 22.2833 53.6084 22.0609 53.9266 21.7899C54.0426 21.6893 54.1485 21.5777 54.2441 21.4559C54.266 21.4261 54.2919 21.3907 54.3201 21.3499C56.8192 19.058 58.0429 16.7803 57.9904 14.5231C58.1213 12.1857 56.918 9.91975 54.3805 7.72376L54.3648 7.70962C50.2117 3.98234 44.94 3.24537 38.5488 5.49949C38.4069 5.34471 38.2611 5.18836 38.1106 5.02965V5.04537C34.8606 1.64729 31.2852 -0.0340787 27.3853 0.00284843C24.6314 -0.0717915 21.499 1.32044 17.9894 4.1819L17.9738 4.19762C15.8941 5.80748 14.1522 8.29967 12.7475 11.6765C11.9001 11.2232 11.0496 11.0166 10.1943 11.0559C7.07047 10.9325 4.57295 12.7836 2.701 16.613L2.71668 16.5973C1.4005 19.2254 0.544484 22.1175 0.149397 25.2728V25.2869C-0.233147 28.4949 0.118825 31.7248 1.20688 34.9768L1.22256 34.9925C2.35451 38.5359 5.07935 40.4978 9.39473 40.882C9.83607 41.7502 10.4107 42.6592 11.117 43.6075L11.1319 43.6232C13.5635 47.0999 17.6516 48.357 23.3976 47.3929C23.8185 47.873 24.3022 48.3578 24.8486 48.8472V48.863C27.2465 51.0189 29.7385 52.0631 32.3262 51.9971H32.356C35.0048 51.9452 37.0139 51.3088 38.3834 50.0886C38.3913 50.0737 38.4022 50.0643 38.4132 50.0548ZM32.8695 33.825C32.8992 33.8423 32.929 33.8627 32.9596 33.8855C33.1618 34.0057 33.3633 34.1282 33.564 34.2485C35.0691 35.1567 36.6549 35.7978 38.3215 36.171C39.5365 36.4452 40.7853 36.5812 42.0678 36.5796C43.3722 36.5788 44.6209 36.402 45.814 36.05C45.7278 37.3346 45.0474 38.4503 43.7743 39.3963L43.7586 39.412C42.3327 40.4326 40.732 40.9425 38.9549 40.9409C36.8478 40.9401 34.8833 40.3839 33.0631 39.2761L33.0788 39.2902C31.228 38.136 30.2763 36.6479 30.2238 34.8236C30.223 34.0921 30.4543 33.5476 30.9183 33.1894H30.9489C31.1519 33.0589 31.3785 32.9568 31.6285 32.8861C32.0072 33.209 32.4211 33.5225 32.8695 33.825ZM38.6695 24.8925C38.7534 24.9177 38.8342 24.9373 38.9118 24.953C39.1328 24.9931 39.3547 25.0332 39.5765 25.0732L39.4707 25.0434C41.12 25.437 42.7827 25.5784 44.4555 25.4669H44.4704C45.4722 25.4087 46.4749 25.2634 47.4775 25.0277C48.3915 26.0153 48.8846 26.9589 48.9583 27.8585C48.9567 28.8453 48.7003 29.5964 48.1877 30.115L48.1414 30.1605C48.1257 30.17 48.1116 30.1802 48.096 30.1912C47.8161 30.3719 47.5543 30.5495 47.3105 30.7215H47.2956C47.0189 30.9179 46.7618 31.0955 46.525 31.2511C46.5007 31.2636 46.4756 31.2786 46.4498 31.2966C46.3314 31.343 46.2154 31.4035 46.1025 31.4781C46.021 31.5033 45.9402 31.5323 45.8603 31.5685C44.686 32.1255 43.4223 32.4037 42.0685 32.4013C41.0965 32.3997 40.1495 32.2937 39.2285 32.0847C37.9962 31.8113 36.8227 31.3422 35.7087 30.676C35.5081 30.555 35.3066 30.4332 35.1044 30.3122C34.5682 29.9358 34.1151 29.532 33.7451 29.1014V29.1172C32.991 28.2175 32.6139 27.1938 32.6123 26.0428C32.6131 25.2657 32.8749 24.6906 33.3986 24.3174V24.3017C34.0727 23.9261 34.9499 23.7399 36.027 23.7423C36.785 24.1972 37.6661 24.5798 38.6695 24.8925ZM51.6314 10.8728L51.6463 10.8885C53.0283 12.0812 53.7534 13.2723 53.8216 14.4602C53.7095 15.7055 52.9091 17.0019 51.4197 18.3517C51.3515 18.4177 51.2864 18.4892 51.2237 18.5638C51.1704 18.6291 51.1195 18.6896 51.0732 18.7461C50.9352 18.8577 50.8098 18.9528 50.6962 19.0337C50.6711 19.0549 50.646 19.0753 50.6201 19.0942C49.8339 19.6999 48.963 20.1847 48.0066 20.5485C47.6907 20.6404 47.3685 20.7315 47.04 20.8203C46.0986 21.082 45.1571 21.2375 44.2149 21.2902H44.2C42.9371 21.3797 41.6829 21.2784 40.438 20.9869C40.4027 20.9767 40.3667 20.9673 40.3322 20.957C40.1503 20.9233 39.9685 20.8887 39.7882 20.851C39.6079 20.7928 39.4307 20.7331 39.2598 20.6687C39.9544 20.2853 40.558 19.7557 41.0722 19.0793C41.0808 19.0635 41.0902 19.0486 41.1036 19.0345C41.773 18.1404 42.2065 17.0648 42.4017 15.81C42.8164 15.9829 43.4208 16.2453 44.2149 16.5965C44.7463 16.833 45.2794 16.8479 45.8164 16.6428C46.3494 16.4331 46.732 16.0654 46.964 15.5366C47.2007 15.0055 47.2156 14.4712 47.0103 13.9315C46.8002 13.398 46.4333 13.0146 45.9073 12.782C44.0659 11.9625 42.9528 11.528 42.5687 11.4793C42.5036 11.4715 42.4378 11.4668 42.3727 11.4636C42.2943 11.4565 42.219 11.4518 42.1461 11.4479C42.1352 11.4118 42.1258 11.3756 42.1156 11.3426C42.1109 11.3191 42.1054 11.2939 42.0999 11.2672C41.8773 10.5459 41.5598 9.81918 41.1482 9.08614C45.3225 7.92019 48.8164 8.51495 51.6314 10.8728ZM14.4705 41.1224L14.4548 41.1067C12.876 38.9712 12.3328 37.2561 12.8227 35.9589C13.0932 35.4482 13.1441 34.9179 12.974 34.3695C12.8063 33.8171 12.4692 33.4038 11.962 33.1289C11.454 32.8578 10.9249 32.8075 10.3762 32.978C9.82588 33.1469 9.41276 33.4856 9.13761 33.9915C8.66884 34.7474 8.39683 35.5645 8.32236 36.4444C6.76788 35.9817 5.7104 35.0444 5.14991 33.6278L5.1648 33.6435C4.28056 31.0067 3.98895 28.388 4.2884 25.7866V25.7709C4.61999 23.1177 5.33569 20.6852 6.43394 18.4727L6.44883 18.4586C7.43968 16.4291 8.68765 15.3535 10.1951 15.2333C10.5635 15.2828 10.9406 15.4541 11.3278 15.748C11.0221 16.8102 10.7399 17.9298 10.482 19.1091C10.3613 19.6709 10.4569 20.1965 10.7689 20.6836C11.0778 21.1739 11.5105 21.4811 12.0678 21.6076C12.6291 21.7294 13.1528 21.6335 13.6388 21.32C14.1264 21.0097 14.4337 20.5776 14.5599 20.0174C15.8956 13.9024 17.9048 9.7139 20.5873 7.45113L20.603 7.43542C23.1695 5.34079 25.431 4.25497 27.3853 4.18033C30.1728 4.22276 32.7401 5.47435 35.0895 7.9359C35.5018 8.36488 35.8757 8.79465 36.2073 9.22285C36.2175 9.23699 36.2269 9.25271 36.2371 9.26763C36.2794 9.32656 36.3241 9.38234 36.3735 9.4342C37.2021 10.4925 37.7806 11.528 38.1106 12.5377L38.0949 12.4622C38.1937 12.8119 38.2698 13.1599 38.3215 13.5064C38.3199 13.5339 38.3199 13.5583 38.3215 13.5826C38.3387 13.772 38.3497 13.9684 38.3521 14.1727C38.3513 15.1438 38.1396 15.9467 37.7171 16.5792L37.7469 16.5494C37.3832 17.0286 36.8697 17.2557 36.2065 17.2305C35.9032 17.2345 35.6108 17.1983 35.3301 17.1245L35.2847 17.1088H35.269C34.6466 16.8966 34.0625 16.5124 33.517 15.9593H33.5021C32.16 14.6276 31.1833 13.673 30.5711 13.0963C30.4864 12.8975 30.3649 12.7121 30.2089 12.5369C29.8514 12.1393 29.4085 11.9122 28.8794 11.8557C28.3479 11.7968 27.865 11.9217 27.4292 12.2344C26.9972 12.551 26.7252 12.9706 26.6131 13.4907C26.3952 14.2371 26.5112 15.2506 26.9604 16.5344L26.9761 16.5651C27.1979 17.1716 27.3233 17.6155 27.3539 17.8968C27.3139 19.1979 26.7817 20.5453 25.7524 21.9399L25.7367 21.9541C24.767 23.23 23.7644 23.9733 22.7305 24.1799C22.1637 24.2561 21.7059 24.524 21.3555 24.9821C21.002 25.4409 20.8601 25.9556 20.933 26.5268C21.009 27.0948 21.2755 27.5536 21.7333 27.9048C22.1911 28.2584 22.7046 28.4006 23.2753 28.3283C25.1127 28.1555 26.8491 27.1113 28.4867 25.195C28.4561 25.4684 28.4404 25.7505 28.4404 26.042C28.4404 27.2425 28.656 28.3676 29.0903 29.4189C28.9413 29.5037 28.7955 29.5956 28.6513 29.6915C26.9196 30.7482 26.0542 32.4579 26.0534 34.8236C26.0503 35.0546 26.055 35.2816 26.0691 35.5048C24.7435 35.6847 23.6155 36.3604 22.6858 37.5342L22.6709 37.5491C21.684 38.7394 21.1909 40.2424 21.1901 42.0613C21.183 42.5154 21.2285 42.9695 21.3257 43.4237C18.2371 43.6665 15.9505 42.8988 14.4705 41.1224ZM32.2651 47.8149C30.6737 47.7803 29.1279 47.0881 27.6267 45.7399V45.7556C26.9635 45.149 26.4352 44.5527 26.0409 43.9697L26.0111 43.9234C25.9852 43.8849 25.9601 43.8495 25.9351 43.8173C25.5705 43.2273 25.3793 42.6419 25.3612 42.0613C25.3605 41.3047 25.5462 40.6722 25.9209 40.1694L25.9358 40.1537C26.1898 39.8307 26.5026 39.6587 26.8726 39.639C26.9667 39.6375 27.0427 39.6375 27.0992 39.639C27.1329 39.6524 27.1681 39.6673 27.205 39.6838C27.3233 39.7443 27.4449 39.7946 27.5679 39.8355C28.3573 40.9519 29.4603 41.9513 30.876 42.8336L30.8917 42.8478C32.6358 43.9092 34.4788 44.6006 36.4205 44.9228C36.4683 44.9943 36.524 45.0642 36.5867 45.1349L36.5718 45.1506C36.5522 45.8145 36.27 46.3888 35.7252 46.876C34.9256 47.4692 33.7827 47.7819 32.2964 47.8157H32.2651V47.8149Z" fill="black"/>
</svg>
