<svg width="68" height="46" viewBox="0 0 68 46" fill="none" xmlns="http://www.w3.org/2000/svg">
<path d="M1.08827 30.7887C2.16259 34.1433 4.86383 35.8897 9.19442 36.027C9.33094 36.0319 9.46422 36.0229 9.59261 36.0002C9.96399 36.5633 10.4036 37.1054 10.9132 37.6279C12.8148 39.5953 15.0495 40.5729 17.6191 40.5599C17.8792 40.5656 18.2936 40.5209 18.8584 40.4275C19.1445 40.3812 19.3265 40.3543 19.4061 40.347C19.4573 40.347 19.5045 40.347 19.5524 40.347C20.0107 41.2019 20.6552 42.0585 21.4857 42.9199L21.4987 42.9329C23.497 45.0157 25.67 46.0372 28.0185 45.999C30.0689 45.99 31.864 45.4179 33.404 44.2794C35.1755 42.9767 36.0288 41.462 35.9646 39.7335C35.9646 39.7042 35.9646 39.6725 35.9646 39.64C38.2075 39.5653 40.2513 38.9655 42.0976 37.8408L42.1115 37.8262C44.5795 36.2781 45.7757 34.3895 45.6977 32.1604C45.7123 31.3908 45.588 30.6497 45.3238 29.933C47.5164 30.3442 49.756 30.6985 52.0436 31C56.77 31.62 59.9791 31.7972 61.6694 31.5331C61.6783 31.5282 61.6873 31.5233 61.6962 31.5192C63.8887 31.1796 65.5734 29.9573 66.7493 27.8534L66.7354 27.8664C67.9755 25.7942 67.9495 23.4529 66.655 20.8403C65.6091 18.2699 62.2228 16.7722 56.4961 16.348C56.4295 16.3423 56.362 16.3382 56.2962 16.3341C60.2977 15.0997 62.7332 13.5476 63.6019 11.6817L63.6157 11.6679C65.0134 9.06828 65.2036 6.9749 64.1894 5.38943C63.363 3.85434 62.1237 2.7979 60.4699 2.21605H60.4959C59.0876 1.69108 57.4843 1.46029 55.6826 1.52286H55.6558C54.02 1.53749 50.7491 2.3867 45.8447 4.06807C42.0042 5.38293 38.8178 6.66285 36.2848 7.90863C35.6534 6.77499 34.7724 5.62104 33.6453 4.4427C30.7775 1.4481 27.622 -0.0301044 24.1796 0.00240142C21.7449 -0.0617976 18.977 1.16124 15.8736 3.66906C14.0353 5.09607 12.4994 7.29509 11.2594 10.2677C10.5117 9.87849 9.76083 9.70052 9.00751 9.73465C6.25508 9.629 4.04143 11.2592 2.36819 14.6276C1.23049 16.9379 0.487729 19.4807 0.141542 22.2543C-0.214397 25.0896 0.100909 27.9339 1.08827 30.7887ZM28.0584 37.8668H28.073C29.3188 38.5194 30.6255 38.994 31.9916 39.2946C32.0663 39.4474 32.163 39.5953 32.2849 39.7343C32.2216 40.3153 31.8656 40.8435 31.2179 41.3214C30.3037 41.9951 29.2383 42.3274 28.0177 42.3209C26.6387 42.2827 25.3498 41.6383 24.1512 40.3868L24.139 40.3746C23.0313 39.2264 22.4487 38.1066 22.3918 37.0135C22.3918 36.3586 22.5551 35.8035 22.8851 35.3468L22.8981 35.3338C23.1232 35.0624 23.3978 34.921 23.7253 34.908C23.8781 34.9072 23.9797 34.9072 24.0317 34.908C24.048 34.9112 24.0602 34.9161 24.0732 34.9218H24.0195C24.2276 35.0242 24.4372 35.0868 24.6461 35.1079C25.4156 36.1513 26.5533 37.0704 28.0584 37.8668ZM5.67403 16.2569C6.56144 14.4659 7.67233 13.5191 9.00751 13.4159C9.33257 13.4598 9.66656 13.611 10.0071 13.8694C9.73726 14.8039 9.48778 15.7913 9.25943 16.8299C9.15297 17.3239 9.23749 17.7863 9.51379 18.2162C9.78684 18.6469 10.1696 18.9184 10.6596 19.0297C11.1545 19.137 11.6185 19.0524 12.0468 18.777C12.4767 18.5039 12.7481 18.1212 12.8611 17.6295C14.0419 12.2376 15.8199 8.536 18.1928 6.5247C20.4593 4.69462 22.4544 3.74789 24.1796 3.68369C26.6379 3.72107 28.9043 4.82302 30.979 6.99034V6.97653C32.2947 8.35234 33.1788 9.68183 33.6315 10.9626C33.6364 10.9764 33.6412 10.9894 33.6461 11.0024C33.7843 11.4965 33.8574 11.9897 33.859 12.4822C33.859 13.329 33.6762 14.0214 33.3129 14.5626C32.9936 14.9754 32.5434 15.1712 31.9656 15.1485C31.0944 15.1266 30.2988 14.7617 29.5796 14.0563C28.4086 12.8958 27.5513 12.0604 27.0068 11.5493C26.9337 11.3608 26.8207 11.182 26.6736 11.0154C26.3575 10.6651 25.9658 10.466 25.501 10.4156C25.0313 10.3636 24.6038 10.475 24.2202 10.7488C23.8391 11.0284 23.5994 11.3973 23.501 11.8557C23.306 12.505 23.4043 13.4029 23.7928 14.548C23.8042 14.5601 23.8115 14.574 23.8196 14.5886C24.0163 15.1233 24.1276 15.5142 24.1528 15.7612C24.1195 16.9071 23.64 18.0935 22.7136 19.3214C21.8611 20.4445 20.9721 21.1011 20.0473 21.2945C19.5508 21.3677 19.1493 21.6074 18.847 22.0145C18.5374 22.4249 18.4188 22.8833 18.487 23.3879C18.5602 23.8844 18.7999 24.2851 19.2078 24.5882C19.619 24.8962 20.0757 25.0165 20.5804 24.9474C22.3926 24.7499 24.0821 23.6114 25.6464 21.5343C26.7354 20.0951 27.4196 18.6811 27.6984 17.2947C28.9953 18.3357 30.4175 18.8468 31.9648 18.8282C33.7981 18.8103 35.2292 18.126 36.258 16.7754L36.2726 16.7486C37.1161 15.6548 37.5395 14.2318 37.5395 12.4822C37.5403 12.1368 37.5224 11.7898 37.4867 11.4428C39.9604 10.1897 43.1468 8.89681 47.0458 7.56326C51.4284 6.0558 54.3345 5.26916 55.7647 5.20252H55.7907C57.0731 5.16026 58.2148 5.32036 59.2177 5.6828H59.2445C60.0067 5.95422 60.5813 6.44425 60.9632 7.14962C61.1964 7.83387 60.9957 8.76191 60.3643 9.93619L60.3781 9.924C59.4281 11.3518 56.7708 12.5692 52.4052 13.576L52.4191 13.563C47.2653 14.7308 42.4081 16.0229 37.8459 17.4426C37.3916 17.5856 37.0454 17.866 36.8065 18.2821C36.5627 18.6981 36.492 19.1386 36.5928 19.6018C36.7017 20.0666 36.9544 20.4348 37.3542 20.7094C37.7451 20.9865 38.1766 21.093 38.6471 21.0288C45.6912 20.0374 51.5536 19.705 56.232 20.0292C60.1132 20.3161 62.4861 21.1296 63.3524 22.4688C64.0131 23.8048 64.0765 24.9978 63.5385 26.0558L63.5247 26.0688C62.9591 27.0944 62.1537 27.7031 61.1119 27.8957L61.1379 27.881C59.6297 28.0793 56.7578 27.9013 52.5255 27.3487C48.1551 26.7742 43.9602 26.0022 39.9409 25.0295C39.5671 24.9067 39.1762 24.8133 38.7666 24.7491C38.7333 24.7434 38.7032 24.7393 38.6748 24.7353C38.5106 24.7182 38.3367 24.6995 38.1539 24.6825C37.65 24.6296 37.1998 24.7629 36.8073 25.0823C36.4148 25.4041 36.1913 25.8185 36.1418 26.3224C36.0889 26.8254 36.2222 27.2748 36.5408 27.6673C36.8642 28.0614 37.2778 28.2833 37.7809 28.3345C37.9198 28.3491 38.0531 28.3629 38.1807 28.3751C38.2116 28.3808 38.2424 28.3849 38.2741 28.3889C38.422 28.4174 38.5683 28.4523 38.7138 28.4954C38.7544 28.5133 38.7983 28.5311 38.8471 28.5482C39.5053 28.7766 40.131 29.1553 40.7267 29.6819L40.7405 29.6957C41.5572 30.4466 41.9831 31.269 42.0204 32.1621C41.9432 33.1315 41.3264 33.9799 40.1668 34.7089L40.1814 34.6951C38.7796 35.5524 37.2161 35.9782 35.4884 35.975C33.4316 35.979 31.5284 35.5256 29.7828 34.6146H29.7958C28.1169 33.7264 27.2327 32.6058 27.1433 31.2551C27.1287 30.7464 27.3351 30.3775 27.7561 30.1475L27.7431 30.1621C28.3607 29.8598 29.1652 29.7087 30.1558 29.7087C30.4987 29.7501 31.2196 29.9809 32.3158 30.4019C32.3288 30.4067 32.341 30.4124 32.3556 30.4149C33.421 30.8529 34.0654 31.1414 34.2889 31.2811C34.6749 31.6168 35.1186 31.7679 35.6225 31.7346C36.1263 31.6964 36.544 31.4827 36.8756 31.0959C37.212 30.7107 37.3624 30.2661 37.3298 29.7623C37.2892 29.2593 37.0755 28.8416 36.6895 28.5092C36.3839 28.189 35.3876 27.6827 33.7022 26.9896C33.6876 26.9855 33.6754 26.9814 33.6624 26.9757C31.9006 26.3004 30.7328 25.9859 30.1566 26.029C28.446 26.0274 27.0629 26.3208 26.0105 26.9091L25.9959 26.9229C24.3259 27.8266 23.4832 29.2625 23.4629 31.2283C22.1025 31.2876 20.9599 31.889 20.0376 33.0283L20.0229 33.043C19.2054 34.049 18.7706 35.2802 18.717 36.7348C18.5854 36.7519 18.4342 36.7746 18.2627 36.8014H18.2497C17.9621 36.8502 17.7532 36.877 17.6232 36.8819C16.0694 36.8697 14.7139 36.2651 13.5567 35.0697C12.4393 33.9255 11.8396 32.6277 11.7583 31.1771C11.7331 30.6684 11.5332 30.2434 11.157 29.8972C10.7823 29.5526 10.3411 29.3934 9.83803 29.4169C9.33013 29.4405 8.90349 29.6404 8.55893 30.0159C8.21437 30.3913 8.05428 30.8309 8.07784 31.3356C8.09084 31.6436 8.11766 31.9459 8.15748 32.2433C6.34366 31.9475 5.14338 31.0625 4.55908 29.59C3.76675 27.2878 3.51483 24.9961 3.79682 22.711C4.08856 20.3632 4.71511 18.2122 5.67403 16.2569Z" fill="black"/>
</svg>
